# xmcd CD database file
#
# Track frame offsets:
#	150
#	16661
#	42361
#	57529
#	68486
#	87398
#	99205
#	120650
#	134722
#	145527
#	159782
#
# Disc length: 2392 seconds
#
# Revision: 0
# Processed by: cddbd v1.5.2PL0 Copyright (c) Steve Scherf et al.
# Submitted via: CDex 1.81
#
DISCID=8709560b
DTITLE=Chri O - Peckman's Plateau
DYEAR=2013
DGENRE=Blues
TTITLE0=Arrangement for me Blues
TTITLE1=Devil Got my Man
TTITLE2=Me and my Chauffeur
TTITLE3=Stocking Feet Blues
TTITLE4=Police Dog Blues
TTITLE5=Blue Wednesday
TTITLE6=Special Rider Blues
TTITLE7=Cruising with the Blues
TTITLE8=Keep your Lamp Trimmed and Burning
TTITLE9=Catfish Blues
TTITLE10=Shake em on Down
EXTD=YEAR: 2013
EXTT0=
EXTT1=
EXTT2=
EXTT3=
EXTT4=
EXTT5=
EXTT6=
EXTT7=
EXTT8=
EXTT9=
EXTT10=
PLAYORDER=
